<svg width="1200" height="630" xmlns="http://www.w3.org/2000/svg">
  <defs>
    <linearGradient id="bg" x1="0%" y1="0%" x2="100%" y2="100%">
      <stop offset="0%" style="stop-color:#0f172a"/>
      <stop offset="100%" style="stop-color:#1e293b"/>
    </linearGradient>
    <linearGradient id="logo_grad" x1="20" y1="20" x2="180" y2="180" gradientUnits="userSpaceOnUse">
      <stop stop-color="#137fec"/>
      <stop offset="1" stop-color="#0ea5e9"/>
    </linearGradient>
  </defs>
  <rect width="1200" height="630" fill="url(#bg)"/>
  <rect x="0" y="0" width="1200" height="4" fill="#137fec" opacity="0.8"/>
  <!-- Logo -->
  <g transform="translate(80, 200) scale(1.2)">
    <path d="M100 20C60 20 40 45 40 45V140C40 165 70 180 100 180C130 180 160 165 160 140V45C160 45 140 20 100 20Z" fill="url(#logo_grad)"/>
    <path d="M85 70H115" stroke="white" stroke-linecap="round" stroke-opacity="0.9" stroke-width="8"/>
    <path d="M70 100H130" stroke="white" stroke-linecap="round" stroke-opacity="0.9" stroke-width="8"/>
    <path d="M85 130H115" stroke="white" stroke-linecap="round" stroke-opacity="0.9" stroke-width="8"/>
    <circle cx="100" cy="50" fill="white" fill-opacity="0.9" r="6"/>
  </g>
  <!-- Text -->
  <text x="340" y="270" font-family="system-ui, -apple-system, sans-serif" font-size="72" font-weight="800" fill="white">실무.kr</text>
  <text x="340" y="340" font-family="system-ui, -apple-system, sans-serif" font-size="32" fill="#94a3b8">계약 실무, 이제 혼자 고민하지 마세요</text>
  <!-- Tags -->
  <rect x="340" y="380" width="160" height="44" rx="22" fill="#137fec" opacity="0.2"/>
  <text x="420" y="408" font-family="system-ui, sans-serif" font-size="18" fill="#60a5fa" text-anchor="middle">법령 가이드 25개</text>
  <rect x="520" y="380" width="180" height="44" rx="22" fill="#059669" opacity="0.2"/>
  <text x="610" y="408" font-family="system-ui, sans-serif" font-size="18" fill="#34d399" text-anchor="middle">자동화 도구 19개</text>
  <rect x="720" y="380" width="160" height="44" rx="22" fill="#f59e0b" opacity="0.2"/>
  <text x="800" y="408" font-family="system-ui, sans-serif" font-size="18" fill="#fbbf24" text-anchor="middle">실무 서식 23개</text>
  <!-- Bottom -->
  <text x="80" y="570" font-family="system-ui, sans-serif" font-size="22" fill="#64748b">공무원을 위한 계약·예산 실무 플랫폼</text>
  <text x="1120" y="570" font-family="system-ui, sans-serif" font-size="22" fill="#64748b" text-anchor="end">silmu.kr</text>
</svg>
