<svg width="800" height="480" viewBox="0 0 800 480" xmlns="http://www.w3.org/2000/svg">
  <defs>
    <style>
      text { font-family: 'Noto Sans KR', 'Apple SD Gothic Neo', '맑은 고딕', sans-serif; }
      .title { font-size: 22px; font-weight: 700; fill: #0f172a; }
      .label { font-size: 12px; font-weight: 600; fill: white; }
      .section-title { font-size: 13px; font-weight: 700; fill: #475569; }
      .body { font-size: 13px; fill: #334155; }
      .caption { font-size: 11px; fill: #64748b; }
      .brand { font-size: 13px; font-weight: 700; fill: #ef4444; }
    </style>
  </defs>

  <!-- 배경 -->
  <rect width="800" height="480" rx="16" fill="#ffffff" stroke="#e2e8f0" stroke-width="1.5"/>

  <!-- 헤더 영역 (심각 - 진한 빨강) -->
  <rect x="0" y="0" width="800" height="72" rx="16" fill="#fecaca" stroke="none"/>
  <rect x="0" y="56" width="800" height="16" fill="#fecaca" stroke="none"/>

  <!-- 심각도 배지 -->
  <rect x="20" y="16" width="48" height="22" rx="11" fill="#b91c1c"/>
  <text x="44" y="31" text-anchor="middle" class="label">심각</text>

  <!-- 분야 배지 -->
  <rect x="76" y="16" width="48" height="22" rx="11" fill="#64748b"/>
  <text x="100" y="31" text-anchor="middle" class="label">여비</text>

  <!-- 제목 -->
  <text x="20" y="62" class="title">출장비 허위 청구</text>

  <!-- 구분선 -->
  <line x1="20" y1="84" x2="780" y2="84" stroke="#e2e8f0" stroke-width="1"/>

  <!-- 지적사항 섹션 -->
  <rect x="20" y="96" width="4" height="16" rx="2" fill="#b91c1c"/>
  <text x="32" y="108" class="section-title">지적사항</text>
  <text x="20" y="130" class="body">
    <tspan x="20" dy="0">실제 출장하지 않고 출장비를 청구하거나, 실제보다 높은 금액으로 청구하는 허위 청구가 적발됨.</tspan>
    <tspan x="20" dy="20">공금 횡령에 해당하며 형사 처벌 및 징계 대상입니다.</tspan>
  </text>

  <!-- 핵심 교훈 섹션 -->
  <rect x="20" y="190" width="760" height="80" rx="8" fill="#f0fdf4" stroke="#bbf7d0" stroke-width="1"/>
  <rect x="32" y="203" width="4" height="16" rx="2" fill="#22c55e"/>
  <text x="44" y="215" class="section-title" fill="#166534">핵심 교훈</text>
  <text x="32" y="238" class="body" fill="#166534">
    <tspan x="32" dy="0">출장비 허위 청구는 공금 횡령입니다. 출장 증빙(교통카드 내역, 숙박 영수증 등)을</tspan>
    <tspan x="32" dy="20">반드시 첨부하고 실제 지출액만 청구해야 합니다.</tspan>
  </text>

  <!-- 예방 포인트 -->
  <rect x="20" y="286" width="760" height="110" rx="8" fill="#eff6ff" stroke="#bfdbfe" stroke-width="1"/>
  <text x="36" y="308" class="section-title" fill="#1e40af">예방 핵심 포인트</text>
  <circle cx="36" cy="328" r="4" fill="#3b82f6"/>
  <text x="48" y="332" class="body" fill="#1e40af">출장 전 출장명령서를 발부하고, 복귀 후 즉시 증빙 서류를 첨부해 정산하세요.</text>
  <circle cx="36" cy="352" r="4" fill="#3b82f6"/>
  <text x="48" y="356" class="body" fill="#1e40af">교통카드 내역, 영수증 등 객관적 증빙만 인정되며 실비 초과 청구는 금지입니다.</text>
  <circle cx="36" cy="376" r="4" fill="#3b82f6"/>
  <text x="48" y="380" class="body" fill="#1e40af">관련 서류를 사전에 구비하고 내부 결재 절차를 반드시 준수하세요.</text>

  <!-- 하단 -->
  <line x1="20" y1="412" x2="780" y2="412" stroke="#e2e8f0" stroke-width="1"/>
  <text x="20" y="434" class="caption">실무.kr 감사사례 | silmu.kr</text>
  <text x="780" y="434" text-anchor="end" class="brand">silmu.kr</text>

  <!-- 하단 컬러 바 -->
  <rect x="0" y="448" width="800" height="32" rx="0" fill="#fecaca"/>
  <rect x="0" y="460" width="800" height="20" rx="8" fill="#b91c1c" opacity="0.3"/>
</svg>
